<?xml version="1.0"?>
<svg version="1.1" xmlns="http://www.w3.org/2000/svg" width="235" height="36" style=""><path fill="#19394f" d="M21.786,19.56l-0.299-1.248s-0.611-0.208-1.456-0.208c-1.365,0-2.145,1.014-2.145,3.185c0,2.106,0.845,2.99,2.21,2.99c1.3,0,2.47-0.91,2.47-0.91l0.715,1.17s-1.365,1.417-3.406,1.417c-2.639,0-4.16-1.586-4.16-4.602c0-3.055,1.716-4.875,4.381-4.875c1.573,0,3.029,0.611,3.029,0.611l-0.065,2.47l-1.274,0z M28.53963,18.65c2.106,0,3.276,1.274,3.276,3.51c0,2.34-1.365,3.77-3.471,3.77c-2.119,0-3.315-1.105-3.315-3.575c0-2.34,1.391-3.705,3.51-3.705z M28.47463,20.21c-0.949,0-1.43,0.52-1.43,2.08c0,1.43,0.416,2.08,1.365,2.08c0.936,0,1.391-0.585,1.391-2.145c0-1.326-0.39-2.015-1.326-2.015z M45.75826,24.76l0,1.04l-3.523,0l0-1.04l0.689-0.325l0-3.094c0-0.715-0.208-1.066-0.754-1.066c-0.845,0-1.443,0.676-1.443,0.676l0,3.484l0.676,0.325l0,1.04l-3.302,0l0-1.04l0.676-0.325l0-3.094c0-0.715-0.182-1.066-0.741-1.066c-0.845,0-1.456,0.676-1.456,0.676l0,3.484l0.689,0.325l0,1.04l-3.64,0l0-1.04l1.001-0.325l0-4.225l-0.988-0.325l0-1.04l2.717-0.065l0.091,0.923s1.131-1.053,2.275-1.053c0.923,0,1.495,0.429,1.794,1.118c0.221-0.221,1.196-1.118,2.353-1.118c1.365,0,2.002,0.884,2.002,2.34l0,3.445z M59.57089,24.76l0,1.04l-3.523,0l0-1.04l0.689-0.325l0-3.094c0-0.715-0.208-1.066-0.754-1.066c-0.845,0-1.443,0.676-1.443,0.676l0,3.484l0.676,0.325l0,1.04l-3.302,0l0-1.04l0.676-0.325l0-3.094c0-0.715-0.182-1.066-0.741-1.066c-0.845,0-1.456,0.676-1.456,0.676l0,3.484l0.689,0.325l0,1.04l-3.64,0l0-1.04l1.001-0.325l0-4.225l-0.988-0.325l0-1.04l2.717-0.065l0.091,0.923s1.131-1.053,2.275-1.053c0.923,0,1.495,0.429,1.794,1.118c0.221-0.221,1.196-1.118,2.353-1.118c1.365,0,2.002,0.884,2.002,2.34l0,3.445z M64.76452,18.65c2.106,0,3.276,1.274,3.276,3.51c0,2.34-1.365,3.77-3.471,3.77c-2.119,0-3.315-1.105-3.315-3.575c0-2.34,1.391-3.705,3.51-3.705z M64.69952,20.21c-0.949,0-1.43,0.52-1.43,2.08c0,1.43,0.416,2.08,1.365,2.08c0.936,0,1.391-0.585,1.391-2.145c0-1.326-0.39-2.015-1.326-2.015z M72.61015,18.78l0.091,0.897s1.235-1.001,2.392-1.001c1.261,0,1.976,0.897,1.976,2.314l0,3.445l0.91,0.325l0,1.04l-3.575,0l0-1.04l0.715-0.325l0-3.094c0-0.598-0.338-1.04-0.884-1.04c-0.806,0-1.391,0.741-1.391,0.741l0,3.393l0.715,0.325l0,1.04l-3.705,0l0-1.04l1.04-0.325l0-4.225l-1.04-0.325l0-1.04z M89.95241,19.56l-0.299-1.248s-0.611-0.208-1.456-0.208c-1.365,0-2.145,1.014-2.145,3.185c0,2.106,0.845,2.99,2.21,2.99c1.3,0,2.47-0.91,2.47-0.91l0.715,1.17s-1.365,1.417-3.406,1.417c-2.639,0-4.16-1.586-4.16-4.602c0-3.055,1.716-4.875,4.381-4.875c1.573,0,3.029,0.611,3.029,0.611l-0.065,2.47l-1.274,0z M96.70604,18.65c2.106,0,3.276,1.274,3.276,3.51c0,2.34-1.365,3.77-3.471,3.77c-2.119,0-3.315-1.105-3.315-3.575c0-2.34,1.391-3.705,3.51-3.705z M96.64104,20.21c-0.949,0-1.43,0.52-1.43,2.08c0,1.43,0.416,2.08,1.365,2.08c0.936,0,1.391-0.585,1.391-2.145c0-1.326-0.39-2.015-1.326-2.015z M104.60367,24.435l1.17,0.325l0,1.04l-4.173,0l0-1.04l1.04-0.325l0-7.306l-1.04-0.26l0-1.04l3.003-0.104l0,8.71z M110.0053,24.435l1.17,0.325l0,1.04l-4.173,0l0-1.04l1.04-0.325l0-7.306l-1.04-0.26l0-1.04l3.003-0.104l0,8.71z M118.94293,22.719l-4.316,0c0.078,1.04,0.676,1.651,1.573,1.651c1.079,0,2.184-0.611,2.184-0.611l0.559,1.079s-1.3,1.092-2.964,1.092c-2.236,0-3.38-1.3-3.38-3.51c0-2.275,1.287-3.77,3.471-3.77c1.937,0,2.951,1.196,2.951,3.055c0,0.494-0.078,0.975-0.078,1.014z M114.65293,21.51l2.353,0c0-0.741-0.312-1.3-1.066-1.3c-0.728,0-1.183,0.533-1.287,1.3z M123.36956,24.63l1.924,0c1.651,0,2.6,0.715,2.6,2.015c0,1.43-1.144,2.47-3.64,2.47c-2.041,0-3.354-0.455-3.354-1.885c0-1.118,1.365-1.56,1.365-1.56s-0.78-0.117-0.78-0.858c0-0.377,0.52-1.222,0.676-1.469c-0.312-0.208-1.001-0.767-1.001-2.028c0-1.781,1.339-2.665,3.12-2.665c0.754,0,1.287,0.195,1.534,0.312l2.236-0.052l0,1.04l-1.066,0.182c0.026,0.117,0.221,0.468,0.221,1.027c0,1.885-1.326,2.665-3.12,2.665c-0.351,0-0.611-0.065-0.663-0.065z M124.21456,19.989c-0.78,0-1.105,0.416-1.105,1.235c0,0.78,0.299,1.3,1.04,1.3c0.819,0,1.105-0.429,1.105-1.3c0-0.819-0.325-1.235-1.04-1.235z M124.77356,26.06l-1.365,0s-0.624,0.286-0.624,0.845c0,0.65,0.559,0.78,1.625,0.78c1.17,0,1.664-0.26,1.664-0.884c0-0.585-0.429-0.741-1.3-0.741z M136.01219,22.719l-4.316,0c0.078,1.04,0.676,1.651,1.573,1.651c1.079,0,2.184-0.611,2.184-0.611l0.559,1.079s-1.3,1.092-2.964,1.092c-2.236,0-3.38-1.3-3.38-3.51c0-2.275,1.287-3.77,3.471-3.77c1.937,0,2.951,1.196,2.951,3.055c0,0.494-0.078,0.975-0.078,1.014z M131.72219,21.51l2.353,0c0-0.741-0.312-1.3-1.066-1.3c-0.728,0-1.183,0.533-1.287,1.3z M151.06645,24.695l0,1.105l-4.134,0l0-1.105l0.975-0.351l-0.312-0.949l-2.886,0l-0.325,0.936l1.014,0.364l0,1.105l-3.926,0l0-1.105l0.949-0.364l2.86-7.657l2.08-0.039l2.795,7.696z M147.16645,22.004l-0.975-3.081l-1.027,3.081l2.002,0z M152.29508,18.845l2.769-0.065l0.117,0.728s0.884-0.858,1.924-0.858c1.807,0,2.704,1.339,2.704,3.445c0,2.405-1.144,3.835-3.419,3.835c-0.377,0-0.767-0.052-1.105-0.13l0,1.651l1.235,0.299l0,1.04l-4.199,0l0-1.04l1.014-0.299l0-7.241l-1.04-0.325l0-1.04z M155.28508,20.925l0,3.315c0.208,0.091,0.52,0.195,1.014,0.195c1.118,0,1.495-0.78,1.495-2.106c0-1.313-0.351-2.119-1.3-2.119c-0.845,0-1.209,0.715-1.209,0.715z M161.49271,18.845l2.769-0.065l0.117,0.728s0.884-0.858,1.924-0.858c1.807,0,2.704,1.339,2.704,3.445c0,2.405-1.144,3.835-3.419,3.835c-0.377,0-0.767-0.052-1.105-0.13l0,1.651l1.235,0.299l0,1.04l-4.199,0l0-1.04l1.014-0.299l0-7.241l-1.04-0.325l0-1.04z M164.48271,20.925l0,3.315c0.208,0.091,0.52,0.195,1.014,0.195c1.118,0,1.495-0.78,1.495-2.106c0-1.313-0.351-2.119-1.3-2.119c-0.845,0-1.209,0.715-1.209,0.715z M173.69334,24.435l1.17,0.325l0,1.04l-4.173,0l0-1.04l1.04-0.325l0-7.306l-1.04-0.26l0-1.04l3.003-0.104l0,8.71z M177.09297,16.635c0-0.741,0.533-1.17,1.118-1.17c0.676,0,1.092,0.351,1.092,1.17c0,0.767-0.559,1.183-1.092,1.183c-0.702,0-1.118-0.416-1.118-1.183z M179.27697,24.435l0.91,0.325l0,1.04l-3.9,0l0-1.04l1.04-0.325l0-4.225l-1.04-0.325l0-1.04l2.99-0.065l0,5.655z M187.4606,23.681l0.65,1.144c-0.325,0.286-1.339,1.105-2.795,1.105c-2.145,0-3.38-1.326-3.38-3.536c0-2.314,1.3-3.744,3.575-3.744c1.118,0,2.275,0.455,2.275,0.455l-0.065,2.132l-1.17,0l-0.182-0.923s-0.377-0.104-0.897-0.104c-0.936,0-1.521,0.624-1.521,1.924c0,1.417,0.546,2.236,1.625,2.236c0.91,0,1.482-0.455,1.885-0.689z M194.09723,25.8l-0.234-0.845s-1.001,0.975-2.106,0.975c-1.261,0-2.028-0.741-2.028-2.041c0-1.534,1.157-2.145,3.133-2.145l0.91,0l0-0.715c0-0.663-0.351-0.949-1.001-0.949c-0.663,0-1.144,0.195-1.144,0.195l-0.195,0.819l-1.17,0l-0.091-1.924s1.573-0.52,2.821-0.52c1.976,0,2.73,0.689,2.73,2.574l0,3.211l0.975,0.234l0,1.04z M193.77223,22.849l-0.741,0c-1.014,0-1.417,0.26-1.417,0.845c0,0.494,0.273,0.78,0.767,0.78c0.689,0,1.391-0.754,1.391-0.754l0-0.871z M202.99586,24.136l0.468,0.988c-0.637,0.468-1.365,0.806-2.21,0.806c-1.495,0-1.924-1.04-1.924-2.535l0-2.99l-1.209,0l0-1.261l1.209-0.169l0-1.794l1.95-0.351l0,2.145l1.82,0l0,1.43l-1.82,0l0,2.86c0,0.832,0.143,1.17,0.689,1.17c0.351,0,0.858-0.208,1.027-0.299z M205.75849,16.635c0-0.741,0.533-1.17,1.118-1.17c0.676,0,1.092,0.351,1.092,1.17c0,0.767-0.559,1.183-1.092,1.183c-0.702,0-1.118-0.416-1.118-1.183z M207.94249,24.435l0.91,0.325l0,1.04l-3.9,0l0-1.04l1.04-0.325l0-4.225l-1.04-0.325l0-1.04l2.99-0.065l0,5.655z M214.11112,18.65c2.106,0,3.276,1.274,3.276,3.51c0,2.34-1.365,3.77-3.471,3.77c-2.119,0-3.315-1.105-3.315-3.575c0-2.34,1.391-3.705,3.51-3.705z M214.04612,20.21c-0.949,0-1.43,0.52-1.43,2.08c0,1.43,0.416,2.08,1.365,2.08c0.936,0,1.391-0.585,1.391-2.145c0-1.326-0.39-2.015-1.326-2.015z M221.95675,18.78l0.091,0.897s1.235-1.001,2.392-1.001c1.261,0,1.976,0.897,1.976,2.314l0,3.445l0.91,0.325l0,1.04l-3.575,0l0-1.04l0.715-0.325l0-3.094c0-0.598-0.338-1.04-0.884-1.04c-0.806,0-1.391,0.741-1.391,0.741l0,3.393l0.715,0.325l0,1.04l-3.705,0l0-1.04l1.04-0.325l0-4.225l-1.04-0.325l0-1.04z"/><path fill="#" d=""/></svg>
